<mxfile host="app.diagrams.net" agent="Mozilla/5.0 (Windows NT 10.0; Win64; x64; rv:132.0) Gecko/20100101 Firefox/132.0" version="24.8.4">
  <diagram name="Page-1" id="i0Go5LDJQtXjAjvavBAt">
    <mxGraphModel dx="971" dy="510" grid="1" gridSize="10" guides="1" tooltips="1" connect="1" arrows="1" fold="1" page="1" pageScale="1" pageWidth="850" pageHeight="1100" math="0" shadow="0">
      <root>
        <mxCell id="0" />
        <mxCell id="1" parent="0" />
        <mxCell id="MylCemg_jx6usanNPepH-5" style="rounded=0;orthogonalLoop=1;jettySize=auto;html=1;entryX=0.5;entryY=0;entryDx=0;entryDy=0;endArrow=none;endFill=0;" parent="1" source="MylCemg_jx6usanNPepH-1" target="MylCemg_jx6usanNPepH-2" edge="1">
          <mxGeometry relative="1" as="geometry" />
        </mxCell>
        <mxCell id="MylCemg_jx6usanNPepH-1" value="user" style="rounded=0;whiteSpace=wrap;html=1;" parent="1" vertex="1">
          <mxGeometry x="370" y="220" width="120" height="60" as="geometry" />
        </mxCell>
        <mxCell id="MylCemg_jx6usanNPepH-2" value="&lt;u&gt;id&lt;/u&gt;" style="ellipse;whiteSpace=wrap;html=1;" parent="1" vertex="1">
          <mxGeometry x="290" y="330" width="120" height="80" as="geometry" />
        </mxCell>
        <mxCell id="MylCemg_jx6usanNPepH-6" style="rounded=0;orthogonalLoop=1;jettySize=auto;html=1;entryX=0.5;entryY=1;entryDx=0;entryDy=0;endArrow=none;endFill=0;" parent="1" source="MylCemg_jx6usanNPepH-3" target="MylCemg_jx6usanNPepH-1" edge="1">
          <mxGeometry relative="1" as="geometry" />
        </mxCell>
        <mxCell id="MylCemg_jx6usanNPepH-3" value="first_name" style="ellipse;whiteSpace=wrap;html=1;" parent="1" vertex="1">
          <mxGeometry x="370" y="430" width="120" height="80" as="geometry" />
        </mxCell>
        <mxCell id="MylCemg_jx6usanNPepH-7" style="rounded=0;orthogonalLoop=1;jettySize=auto;html=1;entryX=0.75;entryY=1;entryDx=0;entryDy=0;endArrow=none;endFill=0;" parent="1" source="MylCemg_jx6usanNPepH-4" target="MylCemg_jx6usanNPepH-1" edge="1">
          <mxGeometry relative="1" as="geometry" />
        </mxCell>
        <mxCell id="MylCemg_jx6usanNPepH-4" value="username" style="ellipse;whiteSpace=wrap;html=1;" parent="1" vertex="1">
          <mxGeometry x="450" y="330" width="120" height="80" as="geometry" />
        </mxCell>
        <mxCell id="MylCemg_jx6usanNPepH-8" style="rounded=0;orthogonalLoop=1;jettySize=auto;html=1;entryX=0.5;entryY=0;entryDx=0;entryDy=0;endArrow=none;endFill=0;" parent="1" source="MylCemg_jx6usanNPepH-9" target="MylCemg_jx6usanNPepH-10" edge="1">
          <mxGeometry relative="1" as="geometry" />
        </mxCell>
        <mxCell id="MylCemg_jx6usanNPepH-9" value="&lt;div&gt;product&lt;/div&gt;" style="rounded=0;whiteSpace=wrap;html=1;" parent="1" vertex="1">
          <mxGeometry x="723" y="220" width="120" height="60" as="geometry" />
        </mxCell>
        <mxCell id="MylCemg_jx6usanNPepH-10" value="&lt;u&gt;idSku&lt;/u&gt;" style="ellipse;whiteSpace=wrap;html=1;" parent="1" vertex="1">
          <mxGeometry x="643" y="332" width="120" height="80" as="geometry" />
        </mxCell>
        <mxCell id="MylCemg_jx6usanNPepH-11" style="rounded=0;orthogonalLoop=1;jettySize=auto;html=1;entryX=0.5;entryY=1;entryDx=0;entryDy=0;endArrow=none;endFill=0;" parent="1" source="MylCemg_jx6usanNPepH-12" target="MylCemg_jx6usanNPepH-9" edge="1">
          <mxGeometry relative="1" as="geometry" />
        </mxCell>
        <mxCell id="MylCemg_jx6usanNPepH-12" value="name" style="ellipse;whiteSpace=wrap;html=1;" parent="1" vertex="1">
          <mxGeometry x="723" y="432" width="120" height="80" as="geometry" />
        </mxCell>
        <mxCell id="MylCemg_jx6usanNPepH-13" style="rounded=0;orthogonalLoop=1;jettySize=auto;html=1;entryX=0.75;entryY=1;entryDx=0;entryDy=0;endArrow=none;endFill=0;" parent="1" source="MylCemg_jx6usanNPepH-14" target="MylCemg_jx6usanNPepH-9" edge="1">
          <mxGeometry relative="1" as="geometry" />
        </mxCell>
        <mxCell id="MylCemg_jx6usanNPepH-14" value="url" style="ellipse;whiteSpace=wrap;html=1;" parent="1" vertex="1">
          <mxGeometry x="803" y="332" width="120" height="80" as="geometry" />
        </mxCell>
        <mxCell id="MylCemg_jx6usanNPepH-16" style="rounded=0;orthogonalLoop=1;jettySize=auto;html=1;entryX=0.5;entryY=0;entryDx=0;entryDy=0;endArrow=none;endFill=0;" parent="1" source="MylCemg_jx6usanNPepH-15" target="MylCemg_jx6usanNPepH-9" edge="1">
          <mxGeometry relative="1" as="geometry" />
        </mxCell>
        <mxCell id="MylCemg_jx6usanNPepH-15" value="prevPrice" style="ellipse;whiteSpace=wrap;html=1;" parent="1" vertex="1">
          <mxGeometry x="649" y="93" width="120" height="80" as="geometry" />
        </mxCell>
        <mxCell id="MylCemg_jx6usanNPepH-17" value="scrapePriority" style="ellipse;whiteSpace=wrap;html=1;" parent="1" vertex="1">
          <mxGeometry x="819" y="93" width="120" height="80" as="geometry" />
        </mxCell>
        <mxCell id="MylCemg_jx6usanNPepH-18" style="rounded=0;orthogonalLoop=1;jettySize=auto;html=1;endArrow=none;endFill=0;" parent="1" source="MylCemg_jx6usanNPepH-17" edge="1">
          <mxGeometry relative="1" as="geometry">
            <mxPoint x="810" y="220" as="targetPoint" />
          </mxGeometry>
        </mxCell>
        <mxCell id="MylCemg_jx6usanNPepH-20" value="M" style="edgeStyle=orthogonalEdgeStyle;rounded=0;orthogonalLoop=1;jettySize=auto;html=1;endArrow=none;endFill=0;" parent="1" source="MylCemg_jx6usanNPepH-19" target="MylCemg_jx6usanNPepH-1" edge="1">
          <mxGeometry x="0.75" y="-10" relative="1" as="geometry">
            <mxPoint as="offset" />
          </mxGeometry>
        </mxCell>
        <mxCell id="MylCemg_jx6usanNPepH-21" value="M" style="edgeStyle=orthogonalEdgeStyle;rounded=0;orthogonalLoop=1;jettySize=auto;html=1;endArrow=none;endFill=0;" parent="1" source="MylCemg_jx6usanNPepH-19" target="MylCemg_jx6usanNPepH-9" edge="1">
          <mxGeometry x="0.6438" y="10" relative="1" as="geometry">
            <mxPoint as="offset" />
          </mxGeometry>
        </mxCell>
        <mxCell id="MylCemg_jx6usanNPepH-19" value="track price" style="rhombus;whiteSpace=wrap;html=1;" parent="1" vertex="1">
          <mxGeometry x="570" y="210" width="80" height="80" as="geometry" />
        </mxCell>
      </root>
    </mxGraphModel>
  </diagram>
</mxfile>
